<svg xmlns="http://www.w3.org/2000/svg" viewBox="0 0 840 150" role="img" aria-label="FlightCore"><g transform="translate(6 10)"><path d="M81 1 18 25v42c0 37 25 61 63 79 38-18 63-42 63-79V25L81 1Z" fill="#081a2c" stroke="#d9e9f5" stroke-width="7"/><path d="M81 21 38 37v31c0 25 16 42 43 56 27-14 43-31 43-56V37L81 21Z" fill="#0a2b48"/><path d="m81 39 8 18 19 8-19 8-8 19-8-19-19-8 19-8 8-18Z" fill="#10bce8"/><path d="M17 48H0l23 10h21V47H17Zm0 19H0l27 11h22V67H17Zm127-19h17l-23 10h-21V47h27Zm0 19h17l-27 11h-22V67h32Z" fill="#0fbbe8"/></g><g transform="translate(180 33) skewX(-10)"><text x="0" y="58" font-family="Arial,Helvetica,sans-serif" font-size="72" font-weight="800" fill="#f5f8fb">Flight</text><text x="204" y="58" font-family="Arial,Helvetica,sans-serif" font-size="72" font-weight="800" fill="#10bce8">Core</text></g></svg>